PathFileType	4	(X/Y/Z)	G:\Shared drives\HIT\Data\HapticPilot\Subject1\Edited\walking_FB1_noFB1.trc
DataRate	CameraRate	NumFrames	NumMarkers	Units	OrigDataRate	OrigDataStartFrame	OrigNumFrames
50.00	50.00	      4	34	mm	50.00	1575	      3148
Frame#	Time	r_knee			r_shank(antsup)			r_ankle			r_calc			r_5meta			r_toe			L_knee			L_shank(ant_sup)			L_ankle			L_calc			L_5meta			L_toe			r_sh2			r_sh3			r_sh4			L_sh2			L_sh3			r_thigh1			r_thigh2			r_thigh3			r_thigh4			r_thigh5			L_thigh1			L_thigh2			L_thigh3			L_thigh4			r.ASIS			r.PSIS			L.ASIS			L.PSIS			C7			R_Shoulder			L_Shoulder			Sternum			
		X1	Y1	Z1	X2	Y2	Z2	X3	Y3	Z3	X4	Y4	Z4	X5	Y5	Z5	X6	Y6	Z6	X7	Y7	Z7	X8	Y8	Z8	X9	Y9	Z9	X10	Y10	Z10	X11	Y11	Z11	X12	Y12	Z12	X13	Y13	Z13	X14	Y14	Z14	X15	Y15	Z15	X16	Y16	Z16	X17	Y17	Z17	X18	Y18	Z18	X19	Y19	Z19	X20	Y20	Z20	X21	Y21	Z21	X22	Y22	Z22	X23	Y23	Z23	X24	Y24	Z24	X25	Y25	Z25	X26	Y26	Z26	X27	Y27	Z27	X28	Y28	Z28	X29	Y29	Z29	X30	Y30	Z30	X31	Y31	Z31	X32	Y32	Z32	X33	Y33	Z33	X34	Y34	Z34	

1575	31.480	1066.99243	408.66791	617.21185	1081.27539	405.25751	527.59167	990.73657	441.76892	154.12968	900.68176	495.13879	129.54251	1086.74243	425.33490	57.19354	1133.07361	481.81296	93.10962	813.03595	703.14520	569.85590	828.20819	696.56799	447.51276	719.91534	659.44928	113.72924	639.45599	609.27356	78.22498	878.51868	634.21552	71.62954	834.57129	692.75647	41.76936	1064.74158	411.34460	408.58069	1006.24213	407.76944	535.31360	982.02759	412.20145	421.92847	740.80243	708.98767	472.98251	720.34155	698.91248	351.66040	980.07434	401.50708	935.90863	1038.57422	396.70010	837.59711	1017.39471	379.16818	787.20428	888.40228	381.30383	874.51740	952.88135	387.87521	777.27301	918.94458	743.26917	833.51202	915.03674	726.64166	695.86432	800.37616	755.63495	837.17914	802.28973	728.79895	702.08185	945.79401	454.44913	1098.28955	755.97388	535.65332	1117.70740	946.39203	707.55487	1097.15027	759.44183	618.31799	1121.57458	855.49475	588.61011	1609.44629	907.62274	420.57526	1576.68811	921.15326	765.94580	1563.82385	993.17084	580.89087	1525.83899	
1576	31.500	1063.36755	409.43546	612.47791	1085.18860	405.10657	523.69598	1040.97449	440.36777	141.47026	955.32990	495.13821	106.51201	1147.86560	422.54050	57.09848	1190.12500	478.46912	98.29184	795.73865	702.36487	569.87726	808.10303	696.21436	447.63565	695.45978	658.52063	115.04092	615.12622	608.42346	79.31989	854.02466	635.26587	71.28474	809.34796	692.64301	41.68923	1082.59033	411.33618	403.41669	1009.58588	407.36557	522.82794	998.84198	411.39798	407.25049	721.22559	707.17175	474.51285	698.24451	697.13745	353.90976	978.23346	400.92331	932.12268	1036.09412	397.03159	833.29486	1014.84851	379.69461	782.81635	885.77008	381.14395	870.77899	950.50726	389.11035	773.76080	909.70819	743.08057	830.71039	901.98590	726.78094	692.99054	790.90771	754.38312	837.62408	789.34265	727.62329	702.40851	945.06879	454.15060	1095.09302	754.76001	534.08081	1114.93640	944.52942	707.52765	1094.23315	757.85687	616.43280	1119.02563	856.12762	589.63354	1606.83862	906.88055	421.04062	1573.97925	922.72937	766.37738	1560.66162	993.54431	580.98962	1522.67932	
1577	31.520	1056.66174	411.07071	605.10785	1087.06885	405.96133	519.06281	1090.82617	438.16354	133.27620	1009.93396	492.84219	87.95723	1207.70801	420.84778	62.94072	1244.00525	476.29025	108.92825	779.74713	701.52216	569.65057	789.78583	695.54395	447.40018	671.27283	657.64966	116.37396	590.90607	607.36115	80.89930	829.69690	635.29089	70.80928	783.91827	692.28644	41.52916	1098.99475	410.22098	399.45053	1012.14899	407.54199	509.11542	1015.09027	410.24020	393.09024	703.19434	705.49536	476.03845	678.34583	695.88123	355.87766	974.76892	399.58865	925.18396	1030.80627	396.53510	825.31689	1008.52203	381.53278	775.20923	880.92786	382.58859	864.97504	944.21021	392.87286	767.64124	901.74677	743.01044	827.39069	889.64594	727.00037	689.70020	782.51477	753.01251	837.67950	777.79108	726.18103	702.35510	944.87598	453.30045	1091.06445	754.39172	532.44171	1111.37610	943.24127	706.93378	1090.33264	757.13660	614.79889	1115.56055	856.65961	590.12799	1603.27966	906.74194	421.30844	1570.60498	924.22717	766.36340	1556.65381	994.04285	580.92554	1518.85327	
1578	31.540	1048.55371	413.48438	595.87823	1088.04114	407.69986	514.73468	1136.15454	434.97083	130.20663	1060.37085	487.74268	74.73312	1259.77319	419.19647	73.63785	1290.07349	474.70996	125.68829	765.82996	700.63873	569.51471	773.02509	694.83118	446.74323	647.53656	656.96362	117.97263	566.98132	606.74243	83.23059	805.41779	635.38110	70.22109	759.55182	692.43463	41.49464	1112.07361	410.58368	396.71378	1014.37079	407.92447	497.10266	1029.19202	409.18845	382.06223	687.21649	704.14996	477.48639	659.94623	694.71716	357.67630	969.81500	397.31711	915.34607	1022.62634	395.62704	814.07159	998.20624	380.93124	763.86157	874.00531	385.53745	858.69653	933.36652	400.45453	758.99622	893.99927	742.56952	824.42938	878.60303	728.01971	687.80884	775.85773	751.82159	837.76874	767.42938	724.95917	702.76361	945.70746	452.05115	1086.54700	754.77057	530.89642	1107.17163	942.90576	705.88605	1085.98169	757.20514	613.47150	1111.39197	856.85876	590.63745	1599.14587	907.06909	421.16675	1566.62769	925.60291	765.89935	1551.77686	994.71973	580.53375	1514.31165	
